%TF.GenerationSoftware,KiCad,Pcbnew,10.0.3*%
%TF.CreationDate,2026-06-12T10:45:29+05:30*%
%TF.ProjectId,741,3734312e-6b69-4636-9164-5f7063625858,rev?*%
%TF.SameCoordinates,Original*%
%TF.FileFunction,Copper,L1,Top*%
%TF.FilePolarity,Positive*%
%FSLAX46Y46*%
G04 Gerber Fmt 4.6, Leading zero omitted, Abs format (unit mm)*
G04 Created by KiCad (PCBNEW 10.0.3) date 2026-06-12 10:45:29*
%MOMM*%
%LPD*%
G01*
G04 APERTURE LIST*
G04 Aperture macros list*
%AMRoundRect*
0 Rectangle with rounded corners*
0 $1 Rounding radius*
0 $2 $3 $4 $5 $6 $7 $8 $9 X,Y pos of 4 corners*
0 Add a 4 corners polygon primitive as box body*
4,1,4,$2,$3,$4,$5,$6,$7,$8,$9,$2,$3,0*
0 Add four circle primitives for the rounded corners*
1,1,$1+$1,$2,$3*
1,1,$1+$1,$4,$5*
1,1,$1+$1,$6,$7*
1,1,$1+$1,$8,$9*
0 Add four rect primitives between the rounded corners*
20,1,$1+$1,$2,$3,$4,$5,0*
20,1,$1+$1,$4,$5,$6,$7,0*
20,1,$1+$1,$6,$7,$8,$9,0*
20,1,$1+$1,$8,$9,$2,$3,0*%
G04 Aperture macros list end*
%TA.AperFunction,ComponentPad*%
%ADD10C,1.600000*%
%TD*%
%TA.AperFunction,ComponentPad*%
%ADD11RoundRect,0.250000X-0.550000X-0.550000X0.550000X-0.550000X0.550000X0.550000X-0.550000X0.550000X0*%
%TD*%
%TA.AperFunction,ComponentPad*%
%ADD12R,1.800000X1.800000*%
%TD*%
%TA.AperFunction,ComponentPad*%
%ADD13C,1.800000*%
%TD*%
%TA.AperFunction,ComponentPad*%
%ADD14R,1.050000X1.500000*%
%TD*%
%TA.AperFunction,ComponentPad*%
%ADD15O,1.050000X1.500000*%
%TD*%
%TA.AperFunction,Conductor*%
%ADD16C,0.200000*%
%TD*%
%ADD17C,1.600000*%
%ADD18RoundRect,0.250000X-0.550000X-0.550000X0.550000X-0.550000X0.550000X0.550000X-0.550000X0.550000X0*%
%ADD19R,1.800000X1.800000*%
%ADD20C,1.800000*%
%ADD21R,1.050000X1.500000*%
%ADD22O,1.050000X1.500000*%
%ADD23C,0.120000*%
%ADD24C,0.050000*%
%ADD25C,0.150000*%
%ADD26C,0.100000*%
%TA.AperFunction,Profile*%
%ADD27C,0.050000*%
%TD*%
G04 APERTURE END LIST*
D10*
%TO.P,R1,1*%
%TO.N,+12V*%
X180500000Y-102000000D03*
%TO.P,R1,2*%
%TO.N,Net-(U1--)*%
X188120000Y-102000000D03*
%TD*%
%TO.P,R3,1*%
%TO.N,+12V*%
X180500000Y-111000000D03*
%TO.P,R3,2*%
%TO.N,Net-(U1-+)*%
X188120000Y-111000000D03*
%TD*%
D11*
%TO.P,U1,1,NULL*%
%TO.N,unconnected-(U1-NULL-Pad1)*%
X191690000Y-101690000D03*
D10*
%TO.P,U1,2,-*%
%TO.N,Net-(U1--)*%
X191690000Y-104230000D03*
%TO.P,U1,3,+*%
%TO.N,Net-(U1-+)*%
X191690000Y-106770000D03*
%TO.P,U1,4,V-*%
%TO.N,GND*%
X191690000Y-109310000D03*
%TO.P,U1,5,NULL*%
%TO.N,unconnected-(U1-NULL-Pad5)*%
X199310000Y-109310000D03*
%TO.P,U1,6*%
%TO.N,Net-(R4-Pad2)*%
X199310000Y-106770000D03*
%TO.P,U1,7,V+*%
%TO.N,+12V*%
X199310000Y-104230000D03*
%TO.P,U1,8,NC*%
%TO.N,unconnected-(U1-NC-Pad8)*%
X199310000Y-101690000D03*
%TD*%
D12*
%TO.P,D1,1,K*%
%TO.N,GND*%
X203000000Y-113000000D03*
D13*
%TO.P,D1,2,A*%
%TO.N,Net-(D1-A)*%
X205540000Y-113000000D03*
%TD*%
D10*
%TO.P,R4,1*%
%TO.N,Net-(D1-A)*%
X204500000Y-108810000D03*
%TO.P,R4,2*%
%TO.N,Net-(R4-Pad2)*%
X204500000Y-101190000D03*
%TD*%
D14*
%TO.P,TH1,1*%
%TO.N,Net-(U1-+)*%
X190800000Y-114082000D03*
D15*
%TO.P,TH1,2*%
%TO.N,GND*%
X193340000Y-114082000D03*
%TD*%
D10*
%TO.P,R2,1*%
%TO.N,Net-(U1--)*%
X180500000Y-106500000D03*
%TO.P,R2,2*%
%TO.N,GND*%
X188120000Y-106500000D03*
%TD*%
%TO.N,+12V*%
D16*
X179000000Y-110000000D02*
X180500000Y-111500000D01*
%TO.N,GND*%
X196000000Y-113000000D02*
X193500000Y-114000000D01*
%TO.N,Net-(U1-+)*%
X184500000Y-104500000D02*
X189500000Y-104500000D01*
%TO.N,Net-(R4-Pad2)*%
X199500000Y-107000000D02*
X202500000Y-107000000D01*
%TO.N,Net-(U1-+)*%
X189500000Y-104500000D02*
X191500000Y-107000000D01*
X184500000Y-111000000D02*
X184500000Y-104500000D01*
X188000000Y-111000000D02*
X184500000Y-111000000D01*
%TO.N,Net-(U1--)*%
X188500000Y-102000000D02*
X184500000Y-102000000D01*
%TO.N,+12V*%
X195000000Y-104000000D02*
X195000000Y-99500000D01*
X199500000Y-104000000D02*
X195000000Y-104000000D01*
%TO.N,GND*%
X191500000Y-109000000D02*
X188000000Y-106500000D01*
%TO.N,Net-(U1-+)*%
X188000000Y-111000000D02*
X191000000Y-114000000D01*
%TO.N,Net-(U1--)*%
X184500000Y-102000000D02*
X180500000Y-106500000D01*
%TO.N,Net-(R4-Pad2)*%
X202500000Y-101500000D02*
X204500000Y-101500000D01*
%TO.N,+12V*%
X180500000Y-102000000D02*
X179000000Y-102000000D01*
%TO.N,Net-(R4-Pad2)*%
X202500000Y-107000000D02*
X202500000Y-101500000D01*
%TO.N,GND*%
X196000000Y-113000000D02*
X191500000Y-109000000D01*
%TO.N,+12V*%
X179000000Y-99500000D02*
X179000000Y-110000000D01*
%TO.N,Net-(U1--)*%
X192000000Y-104500000D02*
X188500000Y-102000000D01*
%TO.N,Net-(D1-A)*%
X204500000Y-109000000D02*
X205500000Y-113000000D01*
%TO.N,GND*%
X203000000Y-113000000D02*
X196000000Y-113000000D01*
%TO.N,+12V*%
X195000000Y-99500000D02*
X179000000Y-99500000D01*
%TD*%
D10*
%TO.P,R1,1*%
%TO.N,+12V*%
X180500000Y-102000000D03*
%TO.P,R1,2*%
%TO.N,Net-(U1--)*%
X188120000Y-102000000D03*
%TD*%
%TO.P,R3,1*%
%TO.N,+12V*%
X180500000Y-111000000D03*
%TO.P,R3,2*%
%TO.N,Net-(U1-+)*%
X188120000Y-111000000D03*
%TD*%
D11*
%TO.P,U1,1,NULL*%
%TO.N,unconnected-(U1-NULL-Pad1)*%
X191690000Y-101690000D03*
D10*
%TO.P,U1,2,-*%
%TO.N,Net-(U1--)*%
X191690000Y-104230000D03*
%TO.P,U1,3,+*%
%TO.N,Net-(U1-+)*%
X191690000Y-106770000D03*
%TO.P,U1,4,V-*%
%TO.N,GND*%
X191690000Y-109310000D03*
%TO.P,U1,5,NULL*%
%TO.N,unconnected-(U1-NULL-Pad5)*%
X199310000Y-109310000D03*
%TO.P,U1,6*%
%TO.N,Net-(R4-Pad2)*%
X199310000Y-106770000D03*
%TO.P,U1,7,V+*%
%TO.N,+12V*%
X199310000Y-104230000D03*
%TO.P,U1,8,NC*%
%TO.N,unconnected-(U1-NC-Pad8)*%
X199310000Y-101690000D03*
%TD*%
D12*
%TO.P,D1,1,K*%
%TO.N,GND*%
X203000000Y-113000000D03*
D13*
%TO.P,D1,2,A*%
%TO.N,Net-(D1-A)*%
X205540000Y-113000000D03*
%TD*%
D10*
%TO.P,R4,1*%
%TO.N,Net-(D1-A)*%
X204500000Y-108810000D03*
%TO.P,R4,2*%
%TO.N,Net-(R4-Pad2)*%
X204500000Y-101190000D03*
%TD*%
D14*
%TO.P,TH1,1*%
%TO.N,Net-(U1-+)*%
X190800000Y-114082000D03*
D15*
%TO.P,TH1,2*%
%TO.N,GND*%
X193340000Y-114082000D03*
%TD*%
D10*
%TO.P,R2,1*%
%TO.N,Net-(U1--)*%
X180500000Y-106500000D03*
%TO.P,R2,2*%
%TO.N,GND*%
X188120000Y-106500000D03*
%TD*%
%TA.AperFunction,Conductor*%
%TO.N,GND*%
G36*
X206442539Y-99020185D02*
G01*
X206488294Y-99072989D01*
X206499500Y-99124500D01*
X206499500Y-111722640D01*
X206479815Y-111789679D01*
X206427011Y-111835434D01*
X206357853Y-111845378D01*
X206302615Y-111822959D01*
X206274021Y-111802184D01*
X206077606Y-111702104D01*
X206077603Y-111702103D01*
X205867954Y-111633985D01*
X205854750Y-111631894D01*
X205791616Y-111601962D01*
X205754687Y-111542649D01*
X205753867Y-111539546D01*
X205342049Y-109892273D01*
X205344887Y-109822462D01*
X205374666Y-109774519D01*
X205422924Y-109726261D01*
X205491966Y-109657219D01*
X205491968Y-109657215D01*
X205491971Y-109657213D01*
X205544732Y-109584590D01*
X205612287Y-109491610D01*
X205705220Y-109309219D01*
X205768477Y-109114534D01*
X205800500Y-108912352D01*
X205800500Y-108707648D01*
X205768477Y-108505466D01*
X205754609Y-108462786D01*
X205739127Y-108415137D01*
X205705220Y-108310781D01*
X205705218Y-108310778D01*
X205705218Y-108310776D01*
X205647610Y-108197715D01*
X205612287Y-108128390D01*
X205599977Y-108111446D01*
X205491971Y-107962786D01*
X205347213Y-107818028D01*
X205181613Y-107697715D01*
X205181612Y-107697714D01*
X205181610Y-107697713D01*
X205124653Y-107668691D01*
X204999223Y-107604781D01*
X204804534Y-107541522D01*
X204629995Y-107513878D01*
X204602352Y-107509500D01*
X204397648Y-107509500D01*
X204373329Y-107513351D01*
X204195465Y-107541522D01*
X204000776Y-107604781D01*
X203818386Y-107697715D01*
X203652786Y-107818028D01*
X203508028Y-107962786D01*
X203387715Y-108128386D01*
X203294781Y-108310776D01*
X203231522Y-108505465D01*
X203199500Y-108707648D01*
X203199500Y-108912351D01*
X203231522Y-109114534D01*
X203294781Y-109309223D01*
X203387715Y-109491613D01*
X203508028Y-109657213D01*
X203652786Y-109801971D01*
X203770805Y-109887715D01*
X203818390Y-109922287D01*
X203937620Y-109983037D01*
X204000780Y-110015220D01*
X204000783Y-110015221D01*
X204081352Y-110041399D01*
X204139027Y-110080836D01*
X204163332Y-110129256D01*
X204573658Y-111770562D01*
X204570820Y-111840374D01*
X204530690Y-111897569D01*
X204466008Y-111923989D01*
X204397310Y-111911245D01*
X204346408Y-111863384D01*
X204344526Y-111860059D01*
X204343351Y-111857907D01*
X204257190Y-111742812D01*
X204257187Y-111742809D01*
X204142093Y-111656649D01*
X204142086Y-111656645D01*
X204007379Y-111606403D01*
X204007372Y-111606401D01*
X203947844Y-111600000D01*
X203250000Y-111600000D01*
X203250000Y-112624722D01*
X203173694Y-112580667D01*
X203059244Y-112550000D01*
X202940756Y-112550000D01*
X202826306Y-112580667D01*
X202750000Y-112624722D01*
X202750000Y-111600000D01*
X202052155Y-111600000D01*
X201992627Y-111606401D01*
X201992620Y-111606403D01*
X201857913Y-111656645D01*
X201857906Y-111656649D01*
X201742812Y-111742809D01*
X201742809Y-111742812D01*
X201656649Y-111857906D01*
X201656645Y-111857913D01*
X201606403Y-111992620D01*
X201606401Y-111992627D01*
X201600000Y-112052155D01*
X201600000Y-112750000D01*
X202624722Y-112750000D01*
X202580667Y-112826306D01*
X202550000Y-112940756D01*
X202550000Y-113059244D01*
X202580667Y-113173694D01*
X202624722Y-113250000D01*
X201600000Y-113250000D01*
X201600000Y-113947844D01*
X201606401Y-114007372D01*
X201606403Y-114007379D01*
X201656645Y-114142086D01*
X201656649Y-114142093D01*
X201742809Y-114257187D01*
X201742812Y-114257190D01*
X201857906Y-114343350D01*
X201857913Y-114343354D01*
X201992620Y-114393596D01*
X201992627Y-114393598D01*
X202052155Y-114399999D01*
X202052172Y-114400000D01*
X202750000Y-114400000D01*
X202750000Y-113375277D01*
X202826306Y-113419333D01*
X202940756Y-113450000D01*
X203059244Y-113450000D01*
X203173694Y-113419333D01*
X203250000Y-113375277D01*
X203250000Y-114400000D01*
X203947828Y-114400000D01*
X203947844Y-114399999D01*
X204007372Y-114393598D01*
X204007379Y-114393596D01*
X204142086Y-114343354D01*
X204142093Y-114343350D01*
X204257187Y-114257190D01*
X204257190Y-114257187D01*
X204343350Y-114142093D01*
X204343354Y-114142086D01*
X204373213Y-114062031D01*
X204415084Y-114006097D01*
X204480548Y-113981680D01*
X204548821Y-113996531D01*
X204577076Y-114017683D01*
X204627636Y-114068243D01*
X204627641Y-114068247D01*
X204745067Y-114153561D01*
X204805978Y-114197815D01*
X204922501Y-114257187D01*
X205002393Y-114297895D01*
X205002396Y-114297896D01*
X205046590Y-114312255D01*
X205212049Y-114366015D01*
X205429778Y-114400500D01*
X205429779Y-114400500D01*
X205650221Y-114400500D01*
X205650222Y-114400500D01*
X205867951Y-114366015D01*
X206077606Y-114297895D01*
X206274022Y-114197815D01*
X206302614Y-114177041D01*
X206368419Y-114153561D01*
X206436473Y-114169386D01*
X206485169Y-114219491D01*
X206499500Y-114277359D01*
X206499500Y-115375500D01*
X206479815Y-115442539D01*
X206427011Y-115488294D01*
X206375500Y-115499500D01*
X193762895Y-115499500D01*
X193695856Y-115479815D01*
X193650101Y-115427011D01*
X193640157Y-115357853D01*
X193669182Y-115294297D01*
X193715443Y-115260939D01*
X193825513Y-115215347D01*
X193825526Y-115215340D01*
X193993399Y-115103170D01*
X193993403Y-115103167D01*
X194136167Y-114960403D01*
X194136170Y-114960399D01*
X194248340Y-114792526D01*
X194248347Y-114792513D01*
X194325609Y-114605983D01*
X194325612Y-114605974D01*
X194364999Y-114407958D01*
X194365000Y-114407955D01*
X194365000Y-114332000D01*
X193620330Y-114332000D01*
X193640075Y-114312255D01*
X193689444Y-114226745D01*
X193715000Y-114131370D01*
X193715000Y-114032630D01*
X193689444Y-113937255D01*
X193640075Y-113851745D01*
X193620330Y-113832000D01*
X194365000Y-113832000D01*
X194365000Y-113756045D01*
X194364999Y-113756041D01*
X194325612Y-113558025D01*
X194325609Y-113558016D01*
X194248347Y-113371486D01*
X194248340Y-113371473D01*
X194178887Y-113267529D01*
X194136170Y-113203600D01*
X194136167Y-113203596D01*
X193993403Y-113060832D01*
X193993399Y-113060829D01*
X193825526Y-112948659D01*
X193825513Y-112948652D01*
X193638984Y-112871390D01*
X193638977Y-112871388D01*
X193590000Y-112861645D01*
X193590000Y-113801670D01*
X193570255Y-113781925D01*
X193484745Y-113732556D01*
X193389370Y-113707000D01*
X193290630Y-113707000D01*
X193195255Y-113732556D01*
X193109745Y-113781925D01*
X193090000Y-113801670D01*
X193090000Y-112861646D01*
X193089999Y-112861645D01*
X193041022Y-112871388D01*
X193041015Y-112871390D01*
X192854486Y-112948652D01*
X192854473Y-112948659D01*
X192686600Y-113060829D01*
X192686596Y-113060832D01*
X192543832Y-113203596D01*
X192543829Y-113203600D01*
X192431659Y-113371473D01*
X192431652Y-113371486D01*
X192354390Y-113558016D01*
X192354387Y-113558025D01*
X192315000Y-113756041D01*
X192315000Y-113832000D01*
X193059670Y-113832000D01*
X193039925Y-113851745D01*
X192990556Y-113937255D01*
X192965000Y-114032630D01*
X192965000Y-114131370D01*
X192990556Y-114226745D01*
X193039925Y-114312255D01*
X193059670Y-114332000D01*
X192315000Y-114332000D01*
X192315000Y-114407958D01*
X192354387Y-114605974D01*
X192354390Y-114605983D01*
X192431652Y-114792513D01*
X192431659Y-114792526D01*
X192543829Y-114960399D01*
X192543832Y-114960403D01*
X192686596Y-115103167D01*
X192686600Y-115103170D01*
X192854473Y-115215340D01*
X192854486Y-115215347D01*
X192964557Y-115260939D01*
X193018961Y-115304779D01*
X193041026Y-115371073D01*
X193023747Y-115438773D01*
X192972610Y-115486384D01*
X192917105Y-115499500D01*
X191641058Y-115499500D01*
X191574019Y-115479815D01*
X191528264Y-115427011D01*
X191518320Y-115357853D01*
X191547345Y-115294297D01*
X191566747Y-115276234D01*
X191648090Y-115215340D01*
X191682546Y-115189546D01*
X191768796Y-115074331D01*
X191819091Y-114939483D01*
X191825500Y-114879873D01*
X191825499Y-113284128D01*
X191819091Y-113224517D01*
X191811289Y-113203600D01*
X191768797Y-113089671D01*
X191768793Y-113089664D01*
X191682547Y-112974455D01*
X191682544Y-112974452D01*
X191567335Y-112888206D01*
X191567328Y-112888202D01*
X191432482Y-112837908D01*
X191432483Y-112837908D01*
X191372883Y-112831501D01*
X191372881Y-112831500D01*
X191372873Y-112831500D01*
X191372865Y-112831500D01*
X190732098Y-112831500D01*
X190665059Y-112811815D01*
X190644417Y-112795181D01*
X190399236Y-112550000D01*
X189384647Y-111535412D01*
X189351163Y-111474090D01*
X189354397Y-111409416D01*
X189388477Y-111304534D01*
X189420500Y-111102352D01*
X189420500Y-110897648D01*
X189388477Y-110695466D01*
X189325220Y-110500781D01*
X189325218Y-110500778D01*
X189325218Y-110500776D01*
X189285007Y-110421859D01*
X189232287Y-110318390D01*
X189232285Y-110318387D01*
X189232284Y-110318385D01*
X189111971Y-110152786D01*
X188967213Y-110008028D01*
X188801613Y-109887715D01*
X188801612Y-109887714D01*
X188801610Y-109887713D01*
X188730534Y-109851498D01*
X188619223Y-109794781D01*
X188424534Y-109731522D01*
X188249995Y-109703878D01*
X188222352Y-109699500D01*
X188017648Y-109699500D01*
X188015104Y-109699903D01*
X187815465Y-109731522D01*
X187620776Y-109794781D01*
X187438386Y-109887715D01*
X187272786Y-110008028D01*
X187128028Y-110152786D01*
X187007715Y-110318385D01*
X187000883Y-110331795D01*
X186952909Y-110382591D01*
X186890398Y-110399500D01*
X185224500Y-110399500D01*
X185157461Y-110379815D01*
X185111706Y-110327011D01*
X185100500Y-110275500D01*
X185100500Y-105224500D01*
X185120185Y-105157461D01*
X185172989Y-105111706D01*
X185224500Y-105100500D01*
X187486680Y-105100500D01*
X187553719Y-105120185D01*
X187599474Y-105172989D01*
X187609418Y-105242147D01*
X187580393Y-105305703D01*
X187542975Y-105334985D01*
X187438644Y-105388143D01*
X187394077Y-105420523D01*
X187394077Y-105420524D01*
X188073554Y-106100000D01*
X188067339Y-106100000D01*
X187965606Y-106127259D01*
X187874394Y-106179920D01*
X187799920Y-106254394D01*
X187747259Y-106345606D01*
X187720000Y-106447339D01*
X187720000Y-106453553D01*
X187040524Y-105774077D01*
X187040523Y-105774077D01*
X187008143Y-105818644D01*
X186915244Y-106000968D01*
X186852009Y-106195582D01*
X186820000Y-106397682D01*
X186820000Y-106602317D01*
X186852009Y-106804417D01*
X186915244Y-106999031D01*
X187008141Y-107181350D01*
X187008147Y-107181359D01*
X187040523Y-107225921D01*
X187040524Y-107225922D01*
X187720000Y-106546446D01*
X187720000Y-106552661D01*
X187747259Y-106654394D01*
X187799920Y-106745606D01*
X187874394Y-106820080D01*
X187965606Y-106872741D01*
X188067339Y-106900000D01*
X188073553Y-106900000D01*
X187394076Y-107579474D01*
X187438650Y-107611859D01*
X187620968Y-107704755D01*
X187815582Y-107767990D01*
X188017683Y-107800000D01*
X188222317Y-107800000D01*
X188424417Y-107767990D01*
X188619031Y-107704755D01*
X188801349Y-107611859D01*
X188845921Y-107579474D01*
X188166447Y-106900000D01*
X188172661Y-106900000D01*
X188274394Y-106872741D01*
X188365606Y-106820080D01*
X188440080Y-106745606D01*
X188492741Y-106654394D01*
X188520000Y-106552661D01*
X188520000Y-106546448D01*
X189199474Y-107225922D01*
X189199474Y-107225921D01*
X189231859Y-107181349D01*
X189324755Y-106999031D01*
X189387990Y-106804417D01*
X189420000Y-106602317D01*
X189420000Y-106397682D01*
X189387990Y-106195582D01*
X189324755Y-106000968D01*
X189231859Y-105818650D01*
X189199474Y-105774077D01*
X189199474Y-105774076D01*
X188520000Y-106453551D01*
X188520000Y-106447339D01*
X188492741Y-106345606D01*
X188440080Y-106254394D01*
X188365606Y-106179920D01*
X188274394Y-106127259D01*
X188172661Y-106100000D01*
X188166446Y-106100000D01*
X188845922Y-105420524D01*
X188845921Y-105420523D01*
X188801359Y-105388147D01*
X188801350Y-105388141D01*
X188697025Y-105334985D01*
X188646229Y-105287011D01*
X188629434Y-105219190D01*
X188651971Y-105153055D01*
X188706686Y-105109603D01*
X188753320Y-105100500D01*
X189151787Y-105100500D01*
X189218826Y-105120185D01*
X189248615Y-105147038D01*
X190367781Y-106545995D01*
X190394289Y-106610641D01*
X190393426Y-106642854D01*
X190389500Y-106667642D01*
X190389500Y-106872351D01*
X190421522Y-107074534D01*
X190484781Y-107269223D01*
X190577715Y-107451613D01*
X190698028Y-107617213D01*
X190842786Y-107761971D01*
X191008385Y-107882284D01*
X191008387Y-107882285D01*
X191008390Y-107882287D01*
X191101080Y-107929515D01*
X191101630Y-107929795D01*
X191152426Y-107977770D01*
X191169221Y-108045591D01*
X191146684Y-108111725D01*
X191101630Y-108150765D01*
X191008644Y-108198143D01*
X190964077Y-108230523D01*
X190964077Y-108230524D01*
X191643554Y-108910000D01*
X191637339Y-108910000D01*
X191535606Y-108937259D01*
X191444394Y-108989920D01*
X191369920Y-109064394D01*
X191317259Y-109155606D01*
X191290000Y-109257339D01*
X191290000Y-109263553D01*
X190610524Y-108584077D01*
X190610523Y-108584077D01*
X190578143Y-108628644D01*
X190485244Y-108810968D01*
X190422009Y-109005582D01*
X190390000Y-109207682D01*
X190390000Y-109412317D01*
X190422009Y-109614417D01*
X190485244Y-109809031D01*
X190578141Y-109991350D01*
X190578147Y-109991359D01*
X190610523Y-110035921D01*
X190610524Y-110035922D01*
X191290000Y-109356446D01*
X191290000Y-109362661D01*
X191317259Y-109464394D01*
X191369920Y-109555606D01*
X191444394Y-109630080D01*
X191535606Y-109682741D01*
X191637339Y-109710000D01*
X191643553Y-109710000D01*
X190964076Y-110389474D01*
X191008650Y-110421859D01*
X191190968Y-110514755D01*
X191385582Y-110577990D01*
X191587683Y-110610000D01*
X191792317Y-110610000D01*
X191994417Y-110577990D01*
X192189031Y-110514755D01*
X192371349Y-110421859D01*
X192415921Y-110389474D01*
X191736447Y-109710000D01*
X191742661Y-109710000D01*
X191844394Y-109682741D01*
X191935606Y-109630080D01*
X192010080Y-109555606D01*
X192062741Y-109464394D01*
X192090000Y-109362661D01*
X192090000Y-109356448D01*
X192769474Y-110035922D01*
X192769474Y-110035921D01*
X192801859Y-109991349D01*
X192894755Y-109809031D01*
X192957990Y-109614417D01*
X192990000Y-109412317D01*
X192990000Y-109207682D01*
X192957990Y-109005582D01*
X192894755Y-108810968D01*
X192801859Y-108628650D01*
X192769474Y-108584077D01*
X192769474Y-108584076D01*
X192090000Y-109263551D01*
X192090000Y-109257339D01*
X192062741Y-109155606D01*
X192010080Y-109064394D01*
X191935606Y-108989920D01*
X191844394Y-108937259D01*
X191742661Y-108910000D01*
X191736446Y-108910000D01*
X192415922Y-108230524D01*
X192415921Y-108230523D01*
X192371359Y-108198147D01*
X192371350Y-108198141D01*
X192278369Y-108150765D01*
X192227573Y-108102790D01*
X192210778Y-108034969D01*
X192233315Y-107968835D01*
X192278370Y-107929795D01*
X192278920Y-107929515D01*
X192371610Y-107882287D01*
X192421144Y-107846298D01*
X192537213Y-107761971D01*
X192537215Y-107761968D01*
X192537219Y-107761966D01*
X192681966Y-107617219D01*
X192681968Y-107617215D01*
X192681971Y-107617213D01*
X192736963Y-107541522D01*
X192802287Y-107451610D01*
X192895220Y-107269219D01*
X192958477Y-107074534D01*
X192990500Y-106872352D01*
X192990500Y-106667648D01*
X192958477Y-106465466D01*
X192895220Y-106270781D01*
X192895218Y-106270778D01*
X192895218Y-106270776D01*
X192831868Y-106146446D01*
X192802287Y-106088390D01*
X192738772Y-106000968D01*
X192681971Y-105922786D01*
X192537213Y-105778028D01*
X192371614Y-105657715D01*
X192365006Y-105654348D01*
X192278917Y-105610483D01*
X192228123Y-105562511D01*
X192211328Y-105494690D01*
X192233865Y-105428555D01*
X192278917Y-105389516D01*
X192371610Y-105342287D01*
X192436997Y-105294781D01*
X192537213Y-105221971D01*
X192537215Y-105221968D01*
X192537219Y-105221966D01*
X192681966Y-105077219D01*
X192681968Y-105077215D01*
X192681971Y-105077213D01*
X192734732Y-105004590D01*
X192802287Y-104911610D01*
X192895220Y-104729219D01*
X192958477Y-104534534D01*
X192990500Y-104332352D01*
X192990500Y-104127648D01*
X192982804Y-104079056D01*
X192958477Y-103925465D01*
X192895218Y-103730776D01*
X192861503Y-103664607D01*
X192802287Y-103548390D01*
X192794556Y-103537749D01*
X192681971Y-103382786D01*
X192537219Y-103238034D01*
X192492051Y-103205218D01*
X192443547Y-103169978D01*
X192400882Y-103114649D01*
X192394903Y-103045036D01*
X192427508Y-102983240D01*
X192477426Y-102951955D01*
X192559334Y-102924814D01*
X192708656Y-102832712D01*
X192832712Y-102708656D01*
X192924814Y-102559334D01*
X192979999Y-102392797D01*
X192990500Y-102290009D01*
X192990499Y-101089992D01*
X192987467Y-101060315D01*
X192979999Y-100987203D01*
X192979998Y-100987200D01*
X192924814Y-100820666D01*
X192832712Y-100671344D01*
X192708656Y-100547288D01*
X192559334Y-100455186D01*
X192392797Y-100400001D01*
X192392795Y-100400000D01*
X192290010Y-100389500D01*
X191089998Y-100389500D01*
X191089981Y-100389501D01*
X190987203Y-100400000D01*
X190987200Y-100400001D01*
X190820668Y-100455185D01*
X190820663Y-100455187D01*
X190671342Y-100547289D01*
X190547289Y-100671342D01*
X190455187Y-100820663D01*
X190455186Y-100820666D01*
X190400001Y-100987203D01*
X190400001Y-100987204D01*
X190400000Y-100987204D01*
X190389500Y-101089983D01*
X190389500Y-102290001D01*
X190389502Y-102290021D01*
X190397057Y-102363987D01*
X190384287Y-102432680D01*
X190336405Y-102483563D01*
X190268615Y-102500483D01*
X190202439Y-102478066D01*
X190201696Y-102477540D01*
X189585238Y-102037213D01*
X189466682Y-101952530D01*
X189423572Y-101897546D01*
X189416283Y-101871025D01*
X189388477Y-101695465D01*
X189353445Y-101587648D01*
X189325220Y-101500781D01*
X189325218Y-101500778D01*
X189325218Y-101500776D01*
X189275972Y-101404127D01*
X189232287Y-101318390D01*
X189224556Y-101307749D01*
X189111971Y-101152786D01*
X188967213Y-101008028D01*
X188801613Y-100887715D01*
X188801612Y-100887714D01*
X188801610Y-100887713D01*
X188713436Y-100842786D01*
X188619223Y-100794781D01*
X188424534Y-100731522D01*
X188249995Y-100703878D01*
X188222352Y-100699500D01*
X188017648Y-100699500D01*
X187993329Y-100703351D01*
X187815465Y-100731522D01*
X187620776Y-100794781D01*
X187438386Y-100887715D01*
X187272786Y-101008028D01*
X187128028Y-101152786D01*
X187007715Y-101318385D01*
X187000883Y-101331795D01*
X186952909Y-101382591D01*
X186890398Y-101399500D01*
X184561173Y-101399500D01*
X184543658Y-101395894D01*
X184482351Y-101399500D01*
X184420942Y-101399500D01*
X184415865Y-101400860D01*
X184391071Y-101404868D01*
X184385817Y-101405177D01*
X184385814Y-101405177D01*
X184330975Y-101423383D01*
X184330976Y-101423384D01*
X184327514Y-101424533D01*
X184268216Y-101440423D01*
X184252727Y-101449365D01*
X184240740Y-101453345D01*
X184240738Y-101453345D01*
X184235758Y-101454998D01*
X184187520Y-101486764D01*
X184181326Y-101490587D01*
X184131282Y-101519481D01*
X184127557Y-101523206D01*
X184127556Y-101523205D01*
X184118629Y-101532131D01*
X184103703Y-101541962D01*
X184062918Y-101587843D01*
X184060330Y-101590432D01*
X184019482Y-101631281D01*
X184019474Y-101631291D01*
X184016850Y-101635837D01*
X184002145Y-101656213D01*
X180866748Y-105183533D01*
X180807497Y-105220561D01*
X180754671Y-105223625D01*
X180649887Y-105207029D01*
X180602352Y-105199500D01*
X180397648Y-105199500D01*
X180373329Y-105203351D01*
X180195465Y-105231522D01*
X180000776Y-105294781D01*
X179818390Y-105387712D01*
X179797385Y-105402974D01*
X179731578Y-105426453D01*
X179663524Y-105410627D01*
X179614830Y-105360521D01*
X179600500Y-105302655D01*
X179600500Y-103197344D01*
X179620185Y-103130305D01*
X179672989Y-103084550D01*
X179742147Y-103074606D01*
X179797385Y-103097026D01*
X179808918Y-103105405D01*
X179818388Y-103112286D01*
X180000776Y-103205218D01*
X180000778Y-103205218D01*
X180000781Y-103205220D01*
X180101754Y-103238028D01*
X180195465Y-103268477D01*
X180296557Y-103284488D01*
X180397648Y-103300500D01*
X180397649Y-103300500D01*
X180602351Y-103300500D01*
X180602352Y-103300500D01*
X180804534Y-103268477D01*
X180999219Y-103205220D01*
X181181610Y-103112287D01*
X181305177Y-103022511D01*
X181347213Y-102991971D01*
X181347215Y-102991968D01*
X181347219Y-102991966D01*
X181491966Y-102847219D01*
X181491968Y-102847215D01*
X181491971Y-102847213D01*
X181592637Y-102708656D01*
X181612287Y-102681610D01*
X181705220Y-102499219D01*
X181768477Y-102304534D01*
X181800500Y-102102352D01*
X181800500Y-101897648D01*
X181796283Y-101871025D01*
X181768477Y-101695465D01*
X181733445Y-101587648D01*
X181705220Y-101500781D01*
X181705218Y-101500778D01*
X181705218Y-101500776D01*
X181655972Y-101404127D01*
X181612287Y-101318390D01*
X181604556Y-101307749D01*
X181491971Y-101152786D01*
X181347213Y-101008028D01*
X181181613Y-100887715D01*
X181181612Y-100887714D01*
X181181610Y-100887713D01*
X181093436Y-100842786D01*
X180999223Y-100794781D01*
X180804534Y-100731522D01*
X180629995Y-100703878D01*
X180602352Y-100699500D01*
X180397648Y-100699500D01*
X180373329Y-100703351D01*
X180195465Y-100731522D01*
X180000776Y-100794781D01*
X179818390Y-100887712D01*
X179797385Y-100902974D01*
X179731578Y-100926453D01*
X179663524Y-100910627D01*
X179614830Y-100860521D01*
X179600500Y-100802655D01*
X179600500Y-100224500D01*
X179620185Y-100157461D01*
X179672989Y-100111706D01*
X179724500Y-100100500D01*
X194275500Y-100100500D01*
X194342539Y-100120185D01*
X194388294Y-100172989D01*
X194399500Y-100224500D01*
X194399500Y-103920943D01*
X194399500Y-104079057D01*
X194418888Y-104151412D01*
X194440423Y-104231783D01*
X194440426Y-104231790D01*
X194519475Y-104368709D01*
X194519479Y-104368714D01*
X194519480Y-104368716D01*
X194631284Y-104480520D01*
X194631286Y-104480521D01*
X194631290Y-104480524D01*
X194724840Y-104534534D01*
X194768216Y-104559577D01*
X194920943Y-104600500D01*
X197972865Y-104600500D01*
X198039904Y-104620185D01*
X198085659Y-104672989D01*
X198090796Y-104686182D01*
X198104778Y-104729216D01*
X198104779Y-104729219D01*
X198197715Y-104911613D01*
X198318028Y-105077213D01*
X198462786Y-105221971D01*
X198578036Y-105305703D01*
X198628390Y-105342287D01*
X198717541Y-105387712D01*
X198721080Y-105389515D01*
X198771876Y-105437490D01*
X198788671Y-105505311D01*
X198766134Y-105571446D01*
X198721080Y-105610485D01*
X198628386Y-105657715D01*
X198462786Y-105778028D01*
X198318028Y-105922786D01*
X198197715Y-106088386D01*
X198104781Y-106270776D01*
X198041522Y-106465465D01*
X198009500Y-106667648D01*
X198009500Y-106872351D01*
X198041522Y-107074534D01*
X198104781Y-107269223D01*
X198197715Y-107451613D01*
X198318028Y-107617213D01*
X198462786Y-107761971D01*
X198617749Y-107874556D01*
X198628390Y-107882287D01*
X198719840Y-107928883D01*
X198721080Y-107929515D01*
X198771876Y-107977490D01*
X198788671Y-108045311D01*
X198766134Y-108111446D01*
X198721080Y-108150485D01*
X198628386Y-108197715D01*
X198462786Y-108318028D01*
X198318028Y-108462786D01*
X198197715Y-108628386D01*
X198104781Y-108810776D01*
X198041522Y-109005465D01*
X198009500Y-109207648D01*
X198009500Y-109412351D01*
X198041522Y-109614534D01*
X198104781Y-109809223D01*
X198162391Y-109922287D01*
X198197585Y-109991359D01*
X198197715Y-109991613D01*
X198318028Y-110157213D01*
X198462786Y-110301971D01*
X198597026Y-110399500D01*
X198628390Y-110422287D01*
X198744607Y-110481503D01*
X198810776Y-110515218D01*
X198810778Y-110515218D01*
X198810781Y-110515220D01*
X198875668Y-110536303D01*
X199005465Y-110578477D01*
X199106557Y-110594488D01*
X199207648Y-110610500D01*
X199207649Y-110610500D01*
X199412351Y-110610500D01*
X199412352Y-110610500D01*
X199614534Y-110578477D01*
X199809219Y-110515220D01*
X199991610Y-110422287D01*
X200116163Y-110331795D01*
X200157213Y-110301971D01*
X200157215Y-110301968D01*
X200157219Y-110301966D01*
X200301966Y-110157219D01*
X200301968Y-110157215D01*
X200301971Y-110157213D01*
X200386113Y-110041399D01*
X200422287Y-109991610D01*
X200515220Y-109809219D01*
X200578477Y-109614534D01*
X200610500Y-109412352D01*
X200610500Y-109207648D01*
X200595752Y-109114534D01*
X200578477Y-109005465D01*
X200547458Y-108910000D01*
X200515220Y-108810781D01*
X200515218Y-108810778D01*
X200515218Y-108810776D01*
X200422419Y-108628650D01*
X200422287Y-108628390D01*
X200390092Y-108584077D01*
X200301971Y-108462786D01*
X200157213Y-108318028D01*
X199991614Y-108197715D01*
X199985006Y-108194348D01*
X199898917Y-108150483D01*
X199848123Y-108102511D01*
X199831328Y-108034690D01*
X199853865Y-107968555D01*
X199898917Y-107929516D01*
X199991610Y-107882287D01*
X200012770Y-107866913D01*
X200157213Y-107761971D01*
X200157215Y-107761968D01*
X200157219Y-107761966D01*
X200282366Y-107636819D01*
X200343689Y-107603334D01*
X200370047Y-107600500D01*
X202579055Y-107600500D01*
X202579057Y-107600500D01*
X202731784Y-107559577D01*
X202868716Y-107480520D01*
X202980520Y-107368716D01*
X203059577Y-107231784D01*
X203100500Y-107079057D01*
X203100500Y-102224500D01*
X203120185Y-102157461D01*
X203172989Y-102111706D01*
X203224500Y-102100500D01*
X203519953Y-102100500D01*
X203586992Y-102120185D01*
X203607634Y-102136819D01*
X203652786Y-102181971D01*
X203801480Y-102290001D01*
X203818390Y-102302287D01*
X203934607Y-102361503D01*
X204000776Y-102395218D01*
X204000778Y-102395218D01*
X204000781Y-102395220D01*
X204105137Y-102429127D01*
X204195465Y-102458477D01*
X204296557Y-102474488D01*
X204397648Y-102490500D01*
X204397649Y-102490500D01*
X204602351Y-102490500D01*
X204602352Y-102490500D01*
X204804534Y-102458477D01*
X204999219Y-102395220D01*
X205181610Y-102302287D01*
X205274590Y-102234732D01*
X205347213Y-102181971D01*
X205347215Y-102181968D01*
X205347219Y-102181966D01*
X205491966Y-102037219D01*
X205491968Y-102037215D01*
X205491971Y-102037213D01*
X205593369Y-101897648D01*
X205612287Y-101871610D01*
X205705220Y-101689219D01*
X205768477Y-101494534D01*
X205800500Y-101292352D01*
X205800500Y-101087648D01*
X205777182Y-100940426D01*
X205768477Y-100885465D01*
X205718458Y-100731523D01*
X205705220Y-100690781D01*
X205705218Y-100690778D01*
X205705218Y-100690776D01*
X205647610Y-100577715D01*
X205612287Y-100508390D01*
X205595134Y-100484781D01*
X205491971Y-100342786D01*
X205347213Y-100198028D01*
X205181613Y-100077715D01*
X205181612Y-100077714D01*
X205181610Y-100077713D01*
X205124653Y-100048691D01*
X204999223Y-99984781D01*
X204804534Y-99921522D01*
X204629995Y-99893878D01*
X204602352Y-99889500D01*
X204397648Y-99889500D01*
X204373329Y-99893351D01*
X204195465Y-99921522D01*
X204000776Y-99984781D01*
X203818386Y-100077715D01*
X203652786Y-100198028D01*
X203508028Y-100342786D01*
X203387715Y-100508386D01*
X203294781Y-100690778D01*
X203294780Y-100690780D01*
X203294780Y-100690781D01*
X203281543Y-100731522D01*
X203254803Y-100813818D01*
X203215365Y-100871494D01*
X203151007Y-100898692D01*
X203136872Y-100899500D01*
X202420943Y-100899500D01*
X202268216Y-100940423D01*
X202268209Y-100940426D01*
X202131290Y-101019475D01*
X202131282Y-101019481D01*
X202019481Y-101131282D01*
X202019475Y-101131290D01*
X201940426Y-101268209D01*
X201940423Y-101268216D01*
X201899500Y-101420943D01*
X201899500Y-106275500D01*
X201879815Y-106342539D01*
X201827011Y-106388294D01*
X201775500Y-106399500D01*
X200647135Y-106399500D01*
X200580096Y-106379815D01*
X200534341Y-106327011D01*
X200529204Y-106313818D01*
X200515221Y-106270783D01*
X200515220Y-106270780D01*
X200476904Y-106195582D01*
X200422287Y-106088390D01*
X200358772Y-106000968D01*
X200301971Y-105922786D01*
X200157213Y-105778028D01*
X199991614Y-105657715D01*
X199985006Y-105654348D01*
X199898917Y-105610483D01*
X199848123Y-105562511D01*
X199831328Y-105494690D01*
X199853865Y-105428555D01*
X199898917Y-105389516D01*
X199991610Y-105342287D01*
X200056997Y-105294781D01*
X200157213Y-105221971D01*
X200157215Y-105221968D01*
X200157219Y-105221966D01*
X200301966Y-105077219D01*
X200301968Y-105077215D01*
X200301971Y-105077213D01*
X200354732Y-105004590D01*
X200422287Y-104911610D01*
X200515220Y-104729219D01*
X200578477Y-104534534D01*
X200610500Y-104332352D01*
X200610500Y-104127648D01*
X200602804Y-104079056D01*
X200578477Y-103925465D01*
X200515218Y-103730776D01*
X200481503Y-103664607D01*
X200422287Y-103548390D01*
X200414556Y-103537749D01*
X200301971Y-103382786D01*
X200157213Y-103238028D01*
X199991614Y-103117715D01*
X199980955Y-103112284D01*
X199898917Y-103070483D01*
X199848123Y-103022511D01*
X199831328Y-102954690D01*
X199853865Y-102888555D01*
X199898917Y-102849516D01*
X199991610Y-102802287D01*
X200120482Y-102708657D01*
X200157213Y-102681971D01*
X200157215Y-102681968D01*
X200157219Y-102681966D01*
X200301966Y-102537219D01*
X200301968Y-102537215D01*
X200301971Y-102537213D01*
X200405133Y-102395220D01*
X200422287Y-102371610D01*
X200515220Y-102189219D01*
X200578477Y-101994534D01*
X200610500Y-101792352D01*
X200610500Y-101587648D01*
X200588598Y-101449365D01*
X200578477Y-101385465D01*
X200515218Y-101190776D01*
X200463865Y-101089991D01*
X200422287Y-101008390D01*
X200372909Y-100940426D01*
X200301971Y-100842786D01*
X200157213Y-100698028D01*
X199991613Y-100577715D01*
X199991612Y-100577714D01*
X199991610Y-100577713D01*
X199931898Y-100547288D01*
X199809223Y-100484781D01*
X199614534Y-100421522D01*
X199439995Y-100393878D01*
X199412352Y-100389500D01*
X199207648Y-100389500D01*
X199183329Y-100393351D01*
X199005465Y-100421522D01*
X198810776Y-100484781D01*
X198628386Y-100577715D01*
X198462786Y-100698028D01*
X198318028Y-100842786D01*
X198197715Y-101008386D01*
X198104781Y-101190776D01*
X198041522Y-101385465D01*
X198009500Y-101587648D01*
X198009500Y-101792351D01*
X198041522Y-101994534D01*
X198104781Y-102189223D01*
X198197715Y-102371613D01*
X198318028Y-102537213D01*
X198462786Y-102681971D01*
X198617749Y-102794556D01*
X198628390Y-102802287D01*
X198716562Y-102847213D01*
X198721080Y-102849515D01*
X198771876Y-102897490D01*
X198788671Y-102965311D01*
X198766134Y-103031446D01*
X198721080Y-103070485D01*
X198628386Y-103117715D01*
X198462786Y-103238028D01*
X198462782Y-103238032D01*
X198337634Y-103363181D01*
X198276311Y-103396666D01*
X198249953Y-103399500D01*
X195724500Y-103399500D01*
X195657461Y-103379815D01*
X195611706Y-103327011D01*
X195600500Y-103275500D01*
X195600500Y-99420945D01*
X195600500Y-99420943D01*
X195559577Y-99268216D01*
X195512397Y-99186498D01*
X195495926Y-99118599D01*
X195518779Y-99052572D01*
X195573701Y-99009382D01*
X195619786Y-99000500D01*
X206375500Y-99000500D01*
X206442539Y-99020185D01*
G37*
%TD.AperFunction*%
%TD*%
D17*
%TO.C,R1*%
X180500000Y-102000000D03*
X188120000Y-102000000D03*
%TD*%
%TO.C,R3*%
X180500000Y-111000000D03*
X188120000Y-111000000D03*
%TD*%
D18*
%TO.C,U1*%
X191690000Y-101690000D03*
D17*
X191690000Y-104230000D03*
X191690000Y-106770000D03*
X191690000Y-109310000D03*
X199310000Y-109310000D03*
X199310000Y-106770000D03*
X199310000Y-104230000D03*
X199310000Y-101690000D03*
%TD*%
D19*
%TO.C,D1*%
X203000000Y-113000000D03*
D20*
X205540000Y-113000000D03*
%TD*%
D17*
%TO.C,R4*%
X204500000Y-108810000D03*
X204500000Y-101190000D03*
%TD*%
D21*
%TO.C,TH1*%
X190800000Y-114082000D03*
D22*
X193340000Y-114082000D03*
%TD*%
D17*
%TO.C,R2*%
X180500000Y-106500000D03*
X188120000Y-106500000D03*
%TD*%
%TO.C,R1*%
X180500000Y-102000000D03*
X188120000Y-102000000D03*
%TD*%
%TO.C,R3*%
X180500000Y-111000000D03*
X188120000Y-111000000D03*
%TD*%
D18*
%TO.C,U1*%
X191690000Y-101690000D03*
D17*
X191690000Y-104230000D03*
X191690000Y-106770000D03*
X191690000Y-109310000D03*
X199310000Y-109310000D03*
X199310000Y-106770000D03*
X199310000Y-104230000D03*
X199310000Y-101690000D03*
%TD*%
D19*
%TO.C,D1*%
X203000000Y-113000000D03*
D20*
X205540000Y-113000000D03*
%TD*%
D17*
%TO.C,R4*%
X204500000Y-108810000D03*
X204500000Y-101190000D03*
%TD*%
D21*
%TO.C,TH1*%
X190800000Y-114082000D03*
D22*
X193340000Y-114082000D03*
%TD*%
D17*
%TO.C,R2*%
X180500000Y-106500000D03*
X188120000Y-106500000D03*
%TD*%
%TO.C,R1*%
D23*
X181040000Y-100630000D02*
X187580000Y-100630000D01*
X181040000Y-100960000D02*
X181040000Y-100630000D01*
X181040000Y-103040000D02*
X181040000Y-103370000D01*
X181040000Y-103370000D02*
X187580000Y-103370000D01*
X187580000Y-100630000D02*
X187580000Y-100960000D01*
X187580000Y-103370000D02*
X187580000Y-103040000D01*
%TO.C,R3*%
X181040000Y-109630000D02*
X187580000Y-109630000D01*
X181040000Y-109960000D02*
X181040000Y-109630000D01*
X181040000Y-112040000D02*
X181040000Y-112370000D01*
X181040000Y-112370000D02*
X187580000Y-112370000D01*
X187580000Y-109630000D02*
X187580000Y-109960000D01*
X187580000Y-112370000D02*
X187580000Y-112040000D01*
%TO.C,U1*%
X192850000Y-100360000D02*
X192850000Y-110640000D01*
X192850000Y-110640000D02*
X198150000Y-110640000D01*
X194500000Y-100360000D02*
X192850000Y-100360000D01*
X198150000Y-100360000D02*
X196500000Y-100360000D01*
X198150000Y-110640000D02*
X198150000Y-100360000D01*
X190360000Y-100300000D02*
X200640000Y-100300000D01*
X200640000Y-110700000D01*
X190360000Y-110700000D01*
X190360000Y-100300000D01*
X196500000Y-100360000D02*
G75*
G02*
X194500000Y-100360000I-1000000J0D01*
G01*
%TO.C,D1*%
X202710000Y-111764000D02*
X202710000Y-111920000D01*
X202710000Y-114080000D02*
X202710000Y-114236000D01*
X202710000Y-111764484D02*
G75*
G02*
X205941437Y-111920000I1560000J-1235516D01*
G01*
X203229039Y-111920000D02*
G75*
G02*
X205310961Y-111920000I1040961J-1080000D01*
G01*
X205310961Y-114080000D02*
G75*
G02*
X203229039Y-114080000I-1040961J1080000D01*
G01*
X205941437Y-114080000D02*
G75*
G02*
X202710000Y-114235516I-1671437J1080000D01*
G01*
%TO.C,R4*%
X203130000Y-101730000D02*
X203460000Y-101730000D01*
X203130000Y-108270000D02*
X203130000Y-101730000D01*
X203460000Y-108270000D02*
X203130000Y-108270000D01*
X205540000Y-108270000D02*
X205870000Y-108270000D01*
X205870000Y-101730000D02*
X205540000Y-101730000D01*
X205870000Y-108270000D02*
X205870000Y-101730000D01*
%TO.C,TH1*%
X189900000Y-115132000D02*
X189900000Y-112932000D01*
X190400000Y-112432000D02*
X193600000Y-112432000D01*
X190419000Y-115733000D02*
X191181000Y-115733000D01*
X190800000Y-115352000D02*
X190419000Y-115733000D01*
X191181000Y-115733000D02*
X190800000Y-115352000D01*
X194100000Y-112932000D02*
X194100000Y-115132000D01*
X194100000Y-115132000D02*
X189900000Y-115132000D01*
X189900000Y-112932000D02*
G75*
G02*
X190400000Y-112432000I500001J-1D01*
G01*
X193600000Y-112432000D02*
G75*
G02*
X194100000Y-112932000I0J-500000D01*
G01*
%TO.C,R2*%
X181040000Y-105130000D02*
X187580000Y-105130000D01*
X181040000Y-105460000D02*
X181040000Y-105130000D01*
X181040000Y-107540000D02*
X181040000Y-107870000D01*
X181040000Y-107870000D02*
X187580000Y-107870000D01*
X187580000Y-105130000D02*
X187580000Y-105460000D01*
X187580000Y-107870000D02*
X187580000Y-107540000D01*
%TD*%
%TO.C,R1*%
D24*
X179450000Y-100500000D02*
X189170000Y-100500000D01*
X189170000Y-103500000D01*
X179450000Y-103500000D01*
X179450000Y-100500000D01*
%TO.C,R3*%
X179450000Y-109500000D02*
X189170000Y-109500000D01*
X189170000Y-112500000D01*
X179450000Y-112500000D01*
X179450000Y-109500000D01*
%TO.C,U1*%
X190170000Y-100110000D02*
X200830000Y-100110000D01*
X200830000Y-110890000D01*
X190170000Y-110890000D01*
X190170000Y-100110000D01*
%TO.C,D1*%
X201850000Y-110790000D02*
X201850000Y-115210000D01*
X201850000Y-115210000D02*
X206690000Y-115210000D01*
X206690000Y-110790000D02*
X201850000Y-110790000D01*
X206690000Y-115210000D02*
X206690000Y-110790000D01*
%TO.C,R4*%
X203000000Y-100140000D02*
X206000000Y-100140000D01*
X206000000Y-109860000D01*
X203000000Y-109860000D01*
X203000000Y-100140000D01*
%TO.C,TH1*%
X189700000Y-112232000D02*
X189700000Y-115332000D01*
X189700000Y-115332000D02*
X194300000Y-115332000D01*
X194300000Y-112232000D02*
X189700000Y-112232000D01*
X194300000Y-115332000D02*
X194300000Y-112232000D01*
%TO.C,R2*%
X179450000Y-105000000D02*
X189170000Y-105000000D01*
X189170000Y-108000000D01*
X179450000Y-108000000D01*
X179450000Y-105000000D01*
%TD*%
D25*
X179904761Y-104454819D02*
X179333333Y-104454819D01*
X179619047Y-104454819D02*
X179619047Y-103454819D01*
X179619047Y-103454819D02*
X179523809Y-103597676D01*
X179523809Y-103597676D02*
X179428571Y-103692914D01*
X179428571Y-103692914D02*
X179333333Y-103740533D01*
X180523809Y-103454819D02*
X180619047Y-103454819D01*
X180619047Y-103454819D02*
X180714285Y-103502438D01*
X180714285Y-103502438D02*
X180761904Y-103550057D01*
X180761904Y-103550057D02*
X180809523Y-103645295D01*
X180809523Y-103645295D02*
X180857142Y-103835771D01*
X180857142Y-103835771D02*
X180857142Y-104073866D01*
X180857142Y-104073866D02*
X180809523Y-104264342D01*
X180809523Y-104264342D02*
X180761904Y-104359580D01*
X180761904Y-104359580D02*
X180714285Y-104407200D01*
X180714285Y-104407200D02*
X180619047Y-104454819D01*
X180619047Y-104454819D02*
X180523809Y-104454819D01*
X180523809Y-104454819D02*
X180428571Y-104407200D01*
X180428571Y-104407200D02*
X180380952Y-104359580D01*
X180380952Y-104359580D02*
X180333333Y-104264342D01*
X180333333Y-104264342D02*
X180285714Y-104073866D01*
X180285714Y-104073866D02*
X180285714Y-103835771D01*
X180285714Y-103835771D02*
X180333333Y-103645295D01*
X180333333Y-103645295D02*
X180380952Y-103550057D01*
X180380952Y-103550057D02*
X180428571Y-103502438D01*
X180428571Y-103502438D02*
X180523809Y-103454819D01*
X181285714Y-104454819D02*
X181285714Y-103454819D01*
X181380952Y-104073866D02*
X181666666Y-104454819D01*
X181666666Y-103788152D02*
X181285714Y-104169104D01*
X184643333Y-102454819D02*
X184310000Y-101978628D01*
X184071905Y-102454819D02*
X184071905Y-101454819D01*
X184071905Y-101454819D02*
X184452857Y-101454819D01*
X184452857Y-101454819D02*
X184548095Y-101502438D01*
X184548095Y-101502438D02*
X184595714Y-101550057D01*
X184595714Y-101550057D02*
X184643333Y-101645295D01*
X184643333Y-101645295D02*
X184643333Y-101788152D01*
X184643333Y-101788152D02*
X184595714Y-101883390D01*
X184595714Y-101883390D02*
X184548095Y-101931009D01*
X184548095Y-101931009D02*
X184452857Y-101978628D01*
X184452857Y-101978628D02*
X184071905Y-101978628D01*
X185595714Y-102454819D02*
X185024286Y-102454819D01*
X185310000Y-102454819D02*
X185310000Y-101454819D01*
X185310000Y-101454819D02*
X185214762Y-101597676D01*
X185214762Y-101597676D02*
X185119524Y-101692914D01*
X185119524Y-101692914D02*
X185024286Y-101740533D01*
X180380952Y-113954819D02*
X179809524Y-113954819D01*
X180095238Y-113954819D02*
X180095238Y-112954819D01*
X180095238Y-112954819D02*
X180000000Y-113097676D01*
X180000000Y-113097676D02*
X179904762Y-113192914D01*
X179904762Y-113192914D02*
X179809524Y-113240533D01*
X180809524Y-113954819D02*
X180809524Y-112954819D01*
X180904762Y-113573866D02*
X181190476Y-113954819D01*
X181190476Y-113288152D02*
X180809524Y-113669104D01*
X184143333Y-111454819D02*
X183810000Y-110978628D01*
X183571905Y-111454819D02*
X183571905Y-110454819D01*
X183571905Y-110454819D02*
X183952857Y-110454819D01*
X183952857Y-110454819D02*
X184048095Y-110502438D01*
X184048095Y-110502438D02*
X184095714Y-110550057D01*
X184095714Y-110550057D02*
X184143333Y-110645295D01*
X184143333Y-110645295D02*
X184143333Y-110788152D01*
X184143333Y-110788152D02*
X184095714Y-110883390D01*
X184095714Y-110883390D02*
X184048095Y-110931009D01*
X184048095Y-110931009D02*
X183952857Y-110978628D01*
X183952857Y-110978628D02*
X183571905Y-110978628D01*
X184476667Y-110454819D02*
X185095714Y-110454819D01*
X185095714Y-110454819D02*
X184762381Y-110835771D01*
X184762381Y-110835771D02*
X184905238Y-110835771D01*
X184905238Y-110835771D02*
X185000476Y-110883390D01*
X185000476Y-110883390D02*
X185048095Y-110931009D01*
X185048095Y-110931009D02*
X185095714Y-111026247D01*
X185095714Y-111026247D02*
X185095714Y-111264342D01*
X185095714Y-111264342D02*
X185048095Y-111359580D01*
X185048095Y-111359580D02*
X185000476Y-111407200D01*
X185000476Y-111407200D02*
X184905238Y-111454819D01*
X184905238Y-111454819D02*
X184619524Y-111454819D01*
X184619524Y-111454819D02*
X184524286Y-111407200D01*
X184524286Y-111407200D02*
X184476667Y-111359580D01*
X196809523Y-99954819D02*
X196333333Y-99954819D01*
X196333333Y-99954819D02*
X196333333Y-98954819D01*
X197142857Y-99954819D02*
X197142857Y-98954819D01*
X197142857Y-98954819D02*
X197476190Y-99669104D01*
X197476190Y-99669104D02*
X197809523Y-98954819D01*
X197809523Y-98954819D02*
X197809523Y-99954819D01*
X198190476Y-98954819D02*
X198857142Y-98954819D01*
X198857142Y-98954819D02*
X198428571Y-99954819D01*
X199666666Y-99288152D02*
X199666666Y-99954819D01*
X199428571Y-98907200D02*
X199190476Y-99621485D01*
X199190476Y-99621485D02*
X199809523Y-99621485D01*
X200714285Y-99954819D02*
X200142857Y-99954819D01*
X200428571Y-99954819D02*
X200428571Y-98954819D01*
X200428571Y-98954819D02*
X200333333Y-99097676D01*
X200333333Y-99097676D02*
X200238095Y-99192914D01*
X200238095Y-99192914D02*
X200142857Y-99240533D01*
X194954819Y-106261904D02*
X195764342Y-106261904D01*
X195764342Y-106261904D02*
X195859580Y-106214285D01*
X195859580Y-106214285D02*
X195907200Y-106166666D01*
X195907200Y-106166666D02*
X195954819Y-106071428D01*
X195954819Y-106071428D02*
X195954819Y-105880952D01*
X195954819Y-105880952D02*
X195907200Y-105785714D01*
X195907200Y-105785714D02*
X195859580Y-105738095D01*
X195859580Y-105738095D02*
X195764342Y-105690476D01*
X195764342Y-105690476D02*
X194954819Y-105690476D01*
X195954819Y-104690476D02*
X195954819Y-105261904D01*
X195954819Y-104976190D02*
X194954819Y-104976190D01*
X194954819Y-104976190D02*
X195097676Y-105071428D01*
X195097676Y-105071428D02*
X195192914Y-105166666D01*
X195192914Y-105166666D02*
X195240533Y-105261904D01*
X199857142Y-114454819D02*
X199380952Y-114454819D01*
X199380952Y-114454819D02*
X199380952Y-113454819D01*
X200190476Y-113931009D02*
X200523809Y-113931009D01*
X200666666Y-114454819D02*
X200190476Y-114454819D01*
X200190476Y-114454819D02*
X200190476Y-113454819D01*
X200190476Y-113454819D02*
X200666666Y-113454819D01*
X201095238Y-114454819D02*
X201095238Y-113454819D01*
X201095238Y-113454819D02*
X201333333Y-113454819D01*
X201333333Y-113454819D02*
X201476190Y-113502438D01*
X201476190Y-113502438D02*
X201571428Y-113597676D01*
X201571428Y-113597676D02*
X201619047Y-113692914D01*
X201619047Y-113692914D02*
X201666666Y-113883390D01*
X201666666Y-113883390D02*
X201666666Y-114026247D01*
X201666666Y-114026247D02*
X201619047Y-114216723D01*
X201619047Y-114216723D02*
X201571428Y-114311961D01*
X201571428Y-114311961D02*
X201476190Y-114407200D01*
X201476190Y-114407200D02*
X201333333Y-114454819D01*
X201333333Y-114454819D02*
X201095238Y-114454819D01*
D23*
X203679524Y-113363855D02*
X203679524Y-112563855D01*
X203679524Y-112563855D02*
X203870000Y-112563855D01*
X203870000Y-112563855D02*
X203984286Y-112601950D01*
X203984286Y-112601950D02*
X204060476Y-112678140D01*
X204060476Y-112678140D02*
X204098571Y-112754331D01*
X204098571Y-112754331D02*
X204136667Y-112906712D01*
X204136667Y-112906712D02*
X204136667Y-113020998D01*
X204136667Y-113020998D02*
X204098571Y-113173379D01*
X204098571Y-113173379D02*
X204060476Y-113249569D01*
X204060476Y-113249569D02*
X203984286Y-113325760D01*
X203984286Y-113325760D02*
X203870000Y-113363855D01*
X203870000Y-113363855D02*
X203679524Y-113363855D01*
X204898571Y-113363855D02*
X204441428Y-113363855D01*
X204670000Y-113363855D02*
X204670000Y-112563855D01*
X204670000Y-112563855D02*
X204593809Y-112678140D01*
X204593809Y-112678140D02*
X204517619Y-112754331D01*
X204517619Y-112754331D02*
X204441428Y-112792426D01*
D25*
X201954819Y-104619047D02*
X201954819Y-105190475D01*
X201954819Y-104904761D02*
X200954819Y-104904761D01*
X200954819Y-104904761D02*
X201097676Y-104999999D01*
X201097676Y-104999999D02*
X201192914Y-105095237D01*
X201192914Y-105095237D02*
X201240533Y-105190475D01*
X201954819Y-104190475D02*
X200954819Y-104190475D01*
X201573866Y-104095237D02*
X201954819Y-103809523D01*
X201288152Y-103809523D02*
X201669104Y-104190475D01*
X204954819Y-105166666D02*
X204478628Y-105499999D01*
X204954819Y-105738094D02*
X203954819Y-105738094D01*
X203954819Y-105738094D02*
X203954819Y-105357142D01*
X203954819Y-105357142D02*
X204002438Y-105261904D01*
X204002438Y-105261904D02*
X204050057Y-105214285D01*
X204050057Y-105214285D02*
X204145295Y-105166666D01*
X204145295Y-105166666D02*
X204288152Y-105166666D01*
X204288152Y-105166666D02*
X204383390Y-105214285D01*
X204383390Y-105214285D02*
X204431009Y-105261904D01*
X204431009Y-105261904D02*
X204478628Y-105357142D01*
X204478628Y-105357142D02*
X204478628Y-105738094D01*
X204288152Y-104309523D02*
X204954819Y-104309523D01*
X203907200Y-104547618D02*
X204621485Y-104785713D01*
X204621485Y-104785713D02*
X204621485Y-104166666D01*
X186333333Y-114454819D02*
X186333333Y-113454819D01*
X186333333Y-113454819D02*
X186904761Y-114454819D01*
X186904761Y-114454819D02*
X186904761Y-113454819D01*
X187238095Y-113454819D02*
X187809523Y-113454819D01*
X187523809Y-114454819D02*
X187523809Y-113454819D01*
X188714285Y-114359580D02*
X188666666Y-114407200D01*
X188666666Y-114407200D02*
X188523809Y-114454819D01*
X188523809Y-114454819D02*
X188428571Y-114454819D01*
X188428571Y-114454819D02*
X188285714Y-114407200D01*
X188285714Y-114407200D02*
X188190476Y-114311961D01*
X188190476Y-114311961D02*
X188142857Y-114216723D01*
X188142857Y-114216723D02*
X188095238Y-114026247D01*
X188095238Y-114026247D02*
X188095238Y-113883390D01*
X188095238Y-113883390D02*
X188142857Y-113692914D01*
X188142857Y-113692914D02*
X188190476Y-113597676D01*
X188190476Y-113597676D02*
X188285714Y-113502438D01*
X188285714Y-113502438D02*
X188428571Y-113454819D01*
X188428571Y-113454819D02*
X188523809Y-113454819D01*
X188523809Y-113454819D02*
X188666666Y-113502438D01*
X188666666Y-113502438D02*
X188714285Y-113550057D01*
X190784286Y-113536819D02*
X191355714Y-113536819D01*
X191070000Y-114536819D02*
X191070000Y-113536819D01*
X191689048Y-114536819D02*
X191689048Y-113536819D01*
X191689048Y-114013009D02*
X192260476Y-114013009D01*
X192260476Y-114536819D02*
X192260476Y-113536819D01*
X193260476Y-114536819D02*
X192689048Y-114536819D01*
X192974762Y-114536819D02*
X192974762Y-113536819D01*
X192974762Y-113536819D02*
X192879524Y-113679676D01*
X192879524Y-113679676D02*
X192784286Y-113774914D01*
X192784286Y-113774914D02*
X192689048Y-113822533D01*
X179904761Y-109454819D02*
X179333333Y-109454819D01*
X179619047Y-109454819D02*
X179619047Y-108454819D01*
X179619047Y-108454819D02*
X179523809Y-108597676D01*
X179523809Y-108597676D02*
X179428571Y-108692914D01*
X179428571Y-108692914D02*
X179333333Y-108740533D01*
X180523809Y-108454819D02*
X180619047Y-108454819D01*
X180619047Y-108454819D02*
X180714285Y-108502438D01*
X180714285Y-108502438D02*
X180761904Y-108550057D01*
X180761904Y-108550057D02*
X180809523Y-108645295D01*
X180809523Y-108645295D02*
X180857142Y-108835771D01*
X180857142Y-108835771D02*
X180857142Y-109073866D01*
X180857142Y-109073866D02*
X180809523Y-109264342D01*
X180809523Y-109264342D02*
X180761904Y-109359580D01*
X180761904Y-109359580D02*
X180714285Y-109407200D01*
X180714285Y-109407200D02*
X180619047Y-109454819D01*
X180619047Y-109454819D02*
X180523809Y-109454819D01*
X180523809Y-109454819D02*
X180428571Y-109407200D01*
X180428571Y-109407200D02*
X180380952Y-109359580D01*
X180380952Y-109359580D02*
X180333333Y-109264342D01*
X180333333Y-109264342D02*
X180285714Y-109073866D01*
X180285714Y-109073866D02*
X180285714Y-108835771D01*
X180285714Y-108835771D02*
X180333333Y-108645295D01*
X180333333Y-108645295D02*
X180380952Y-108550057D01*
X180380952Y-108550057D02*
X180428571Y-108502438D01*
X180428571Y-108502438D02*
X180523809Y-108454819D01*
X181285714Y-109454819D02*
X181285714Y-108454819D01*
X181380952Y-109073866D02*
X181666666Y-109454819D01*
X181666666Y-108788152D02*
X181285714Y-109169104D01*
X184143333Y-106954819D02*
X183810000Y-106478628D01*
X183571905Y-106954819D02*
X183571905Y-105954819D01*
X183571905Y-105954819D02*
X183952857Y-105954819D01*
X183952857Y-105954819D02*
X184048095Y-106002438D01*
X184048095Y-106002438D02*
X184095714Y-106050057D01*
X184095714Y-106050057D02*
X184143333Y-106145295D01*
X184143333Y-106145295D02*
X184143333Y-106288152D01*
X184143333Y-106288152D02*
X184095714Y-106383390D01*
X184095714Y-106383390D02*
X184048095Y-106431009D01*
X184048095Y-106431009D02*
X183952857Y-106478628D01*
X183952857Y-106478628D02*
X183571905Y-106478628D01*
X184524286Y-106050057D02*
X184571905Y-106002438D01*
X184571905Y-106002438D02*
X184667143Y-105954819D01*
X184667143Y-105954819D02*
X184905238Y-105954819D01*
X184905238Y-105954819D02*
X185000476Y-106002438D01*
X185000476Y-106002438D02*
X185048095Y-106050057D01*
X185048095Y-106050057D02*
X185095714Y-106145295D01*
X185095714Y-106145295D02*
X185095714Y-106240533D01*
X185095714Y-106240533D02*
X185048095Y-106383390D01*
X185048095Y-106383390D02*
X184476667Y-106954819D01*
X184476667Y-106954819D02*
X185095714Y-106954819D01*
%TO.C,R1*%
D26*
X180500000Y-102000000D02*
X181160000Y-102000000D01*
X188120000Y-102000000D02*
X187460000Y-102000000D01*
X181160000Y-100750000D02*
X187460000Y-100750000D01*
X187460000Y-103250000D01*
X181160000Y-103250000D01*
X181160000Y-100750000D01*
%TO.C,R3*%
X180500000Y-111000000D02*
X181160000Y-111000000D01*
X188120000Y-111000000D02*
X187460000Y-111000000D01*
X181160000Y-109750000D02*
X187460000Y-109750000D01*
X187460000Y-112250000D01*
X181160000Y-112250000D01*
X181160000Y-109750000D01*
%TO.C,U1*%
X192325000Y-101420000D02*
X193325000Y-100420000D01*
X192325000Y-110580000D02*
X192325000Y-101420000D01*
X193325000Y-100420000D02*
X198675000Y-100420000D01*
X198675000Y-100420000D02*
X198675000Y-110580000D01*
X198675000Y-110580000D02*
X192325000Y-110580000D01*
X190420000Y-100360000D02*
X200580000Y-100360000D01*
X200580000Y-110640000D01*
X190420000Y-110640000D01*
X190420000Y-100360000D01*
%TO.C,D1*%
X202770000Y-111833810D02*
X202770000Y-114166190D01*
X202770000Y-111833810D02*
G75*
G02*
X202770000Y-114166190I1500000J-1166190D01*
G01*
X205770000Y-113000000D02*
G75*
G02*
X202770000Y-113000000I-1500000J0D01*
G01*
X202770000Y-113000000D02*
G75*
G02*
X205770000Y-113000000I1500000J0D01*
G01*
%TO.C,R4*%
X204500000Y-101190000D02*
X204500000Y-101850000D01*
X204500000Y-108810000D02*
X204500000Y-108150000D01*
X203250000Y-101850000D02*
X205750000Y-101850000D01*
X205750000Y-108150000D01*
X203250000Y-108150000D01*
X203250000Y-101850000D01*
%TO.C,TH1*%
X189950000Y-112982000D02*
X189950000Y-115082000D01*
X189950000Y-115082000D02*
X194050000Y-115082000D01*
X193500000Y-112482000D02*
X190450000Y-112482000D01*
X194050000Y-115082000D02*
X194050000Y-112982000D01*
X189950000Y-112982000D02*
G75*
G02*
X190450000Y-112482000I500001J-1D01*
G01*
X193550000Y-112482000D02*
G75*
G02*
X194050000Y-112982000I0J-500000D01*
G01*
%TO.C,R2*%
X180500000Y-106500000D02*
X181160000Y-106500000D01*
X188120000Y-106500000D02*
X187460000Y-106500000D01*
X181160000Y-105250000D02*
X187460000Y-105250000D01*
X187460000Y-107750000D01*
X181160000Y-107750000D01*
X181160000Y-105250000D01*
%TD*%
D27*
X178000000Y-98500000D02*
X207000000Y-98500000D01*
X207000000Y-116000000D01*
X178000000Y-116000000D01*
X178000000Y-98500000D01*
M02*
